<mxfile host="app.diagrams.net" modified="2023-05-21T21:46:23.907Z" agent="Mozilla/5.0 (Windows NT 10.0; Win64; x64) AppleWebKit/537.36 (KHTML, like Gecko) Chrome/113.0.0.0 Safari/537.36" etag="Qiu-Q17qV9umwNkBYlhl" version="21.3.2" type="device">
  <diagram id="SJKQbwATTXSdq_l_r0Jc" name="Страница 1">
    <mxGraphModel dx="1202" dy="644" grid="0" gridSize="10" guides="1" tooltips="1" connect="1" arrows="1" fold="1" page="0" pageScale="1" pageWidth="1400" pageHeight="850" math="0" shadow="0">
      <root>
        <mxCell id="0" />
        <mxCell id="1" parent="0" />
        <mxCell id="NCQksfRdaHrPETZf62UO-32" value="Docker Network" style="verticalAlign=top;align=left;spacingTop=8;spacingLeft=2;spacingRight=12;shape=cube;size=10;direction=south;fontStyle=4;html=1;" parent="1" vertex="1">
          <mxGeometry x="70" y="70" width="950" height="260" as="geometry" />
        </mxCell>
        <mxCell id="NCQksfRdaHrPETZf62UO-1" value="Database (docker container)" style="verticalAlign=top;align=left;spacingTop=8;spacingLeft=2;spacingRight=12;shape=cube;size=10;direction=south;fontStyle=4;html=1;" parent="1" vertex="1">
          <mxGeometry x="130" y="140" width="220" height="160" as="geometry" />
        </mxCell>
        <mxCell id="NCQksfRdaHrPETZf62UO-4" value="MS SQL Server 2022" style="shape=module;align=left;spacingLeft=20;align=center;verticalAlign=top;" parent="1" vertex="1">
          <mxGeometry x="157" y="200" width="146" height="70" as="geometry" />
        </mxCell>
        <mxCell id="NCQksfRdaHrPETZf62UO-5" value="Backend (docker container)" style="verticalAlign=top;align=left;spacingTop=8;spacingLeft=2;spacingRight=12;shape=cube;size=10;direction=south;fontStyle=4;html=1;" parent="1" vertex="1">
          <mxGeometry x="430" y="140" width="220" height="160" as="geometry" />
        </mxCell>
        <mxCell id="NCQksfRdaHrPETZf62UO-6" value="ASP.NET 6" style="shape=module;align=left;spacingLeft=20;align=center;verticalAlign=top;" parent="1" vertex="1">
          <mxGeometry x="470" y="200" width="130" height="70" as="geometry" />
        </mxCell>
        <mxCell id="NCQksfRdaHrPETZf62UO-7" value="Front-end (docker container)" style="verticalAlign=top;align=left;spacingTop=8;spacingLeft=2;spacingRight=12;shape=cube;size=10;direction=south;fontStyle=4;html=1;" parent="1" vertex="1">
          <mxGeometry x="740" y="140" width="220" height="160" as="geometry" />
        </mxCell>
        <mxCell id="NCQksfRdaHrPETZf62UO-8" value="Angular 15" style="shape=module;align=left;spacingLeft=20;align=center;verticalAlign=top;" parent="1" vertex="1">
          <mxGeometry x="785" y="200" width="130" height="70" as="geometry" />
        </mxCell>
        <mxCell id="NCQksfRdaHrPETZf62UO-9" value="User workstation" style="verticalAlign=top;align=left;spacingTop=8;spacingLeft=2;spacingRight=12;shape=cube;size=10;direction=south;fontStyle=4;html=1;" parent="1" vertex="1">
          <mxGeometry x="430" y="370" width="220" height="160" as="geometry" />
        </mxCell>
        <mxCell id="NCQksfRdaHrPETZf62UO-11" value="port: 1435" style="text;align=center;fontStyle=0;verticalAlign=middle;spacingLeft=3;spacingRight=3;strokeColor=none;rotatable=0;points=[[0,0.5],[1,0.5]];portConstraint=eastwest;" parent="1" vertex="1">
          <mxGeometry x="130" y="274" width="63" height="26" as="geometry" />
        </mxCell>
        <mxCell id="NCQksfRdaHrPETZf62UO-12" value="port: 6578" style="text;align=center;fontStyle=0;verticalAlign=middle;spacingLeft=3;spacingRight=3;strokeColor=none;rotatable=0;points=[[0,0.5],[1,0.5]];portConstraint=eastwest;" parent="1" vertex="1">
          <mxGeometry x="430" y="274" width="64" height="26" as="geometry" />
        </mxCell>
        <mxCell id="NCQksfRdaHrPETZf62UO-13" value="port: 4014" style="text;align=center;fontStyle=0;verticalAlign=middle;spacingLeft=3;spacingRight=3;strokeColor=none;rotatable=0;points=[[0,0.5],[1,0.5]];portConstraint=eastwest;" parent="1" vertex="1">
          <mxGeometry x="740" y="274" width="66" height="26" as="geometry" />
        </mxCell>
        <mxCell id="NCQksfRdaHrPETZf62UO-14" value="port: 1433" style="text;align=center;fontStyle=0;verticalAlign=middle;spacingLeft=3;spacingRight=3;strokeColor=none;rotatable=0;points=[[0,0.5],[1,0.5]];portConstraint=eastwest;" parent="1" vertex="1">
          <mxGeometry x="240" y="244" width="63" height="26" as="geometry" />
        </mxCell>
        <mxCell id="NCQksfRdaHrPETZf62UO-15" value="port: 80" style="text;align=center;fontStyle=0;verticalAlign=middle;spacingLeft=3;spacingRight=3;strokeColor=none;rotatable=0;points=[[0,0.5],[1,0.5]];portConstraint=eastwest;" parent="1" vertex="1">
          <mxGeometry x="546" y="244" width="54" height="26" as="geometry" />
        </mxCell>
        <mxCell id="NCQksfRdaHrPETZf62UO-16" value="port: 4200" style="text;align=center;fontStyle=0;verticalAlign=middle;spacingLeft=3;spacingRight=3;strokeColor=none;rotatable=0;points=[[0,0.5],[1,0.5]];portConstraint=eastwest;" parent="1" vertex="1">
          <mxGeometry x="849" y="244" width="66" height="26" as="geometry" />
        </mxCell>
        <mxCell id="NCQksfRdaHrPETZf62UO-20" value="" style="endArrow=none;html=1;rounded=0;entryX=1.001;entryY=0.148;entryDx=0;entryDy=0;entryPerimeter=0;edgeStyle=orthogonalEdgeStyle;exitX=0.661;exitY=0.001;exitDx=0;exitDy=0;exitPerimeter=0;" parent="1" source="NCQksfRdaHrPETZf62UO-9" target="NCQksfRdaHrPETZf62UO-32" edge="1">
          <mxGeometry relative="1" as="geometry">
            <mxPoint x="651" y="475" as="sourcePoint" />
            <mxPoint x="830" y="440" as="targetPoint" />
          </mxGeometry>
        </mxCell>
        <mxCell id="NCQksfRdaHrPETZf62UO-22" value="TCP" style="text;html=1;strokeColor=none;fillColor=none;align=center;verticalAlign=middle;whiteSpace=wrap;rounded=0;" parent="1" vertex="1">
          <mxGeometry x="783" y="476" width="38" height="21" as="geometry" />
        </mxCell>
        <mxCell id="NCQksfRdaHrPETZf62UO-25" value="" style="endArrow=none;html=1;rounded=0;exitX=-0.002;exitY=0.299;exitDx=0;exitDy=0;exitPerimeter=0;entryX=1;entryY=0.299;entryDx=0;entryDy=0;entryPerimeter=0;" parent="1" source="NCQksfRdaHrPETZf62UO-9" target="NCQksfRdaHrPETZf62UO-5" edge="1">
          <mxGeometry width="50" height="50" relative="1" as="geometry">
            <mxPoint x="530" y="330" as="sourcePoint" />
            <mxPoint x="580" y="280" as="targetPoint" />
          </mxGeometry>
        </mxCell>
        <mxCell id="NCQksfRdaHrPETZf62UO-28" value="" style="endArrow=none;html=1;rounded=0;exitX=0.318;exitY=0.001;exitDx=0;exitDy=0;exitPerimeter=0;" parent="1" source="NCQksfRdaHrPETZf62UO-5" edge="1">
          <mxGeometry width="50" height="50" relative="1" as="geometry">
            <mxPoint x="630" y="220" as="sourcePoint" />
            <mxPoint x="740" y="191" as="targetPoint" />
          </mxGeometry>
        </mxCell>
        <mxCell id="NCQksfRdaHrPETZf62UO-30" value="" style="endArrow=none;html=1;rounded=0;entryX=0.319;entryY=0;entryDx=0;entryDy=0;entryPerimeter=0;exitX=0.319;exitY=1.002;exitDx=0;exitDy=0;exitPerimeter=0;" parent="1" source="NCQksfRdaHrPETZf62UO-5" target="NCQksfRdaHrPETZf62UO-1" edge="1">
          <mxGeometry width="50" height="50" relative="1" as="geometry">
            <mxPoint x="410" y="260" as="sourcePoint" />
            <mxPoint x="710" y="170" as="targetPoint" />
          </mxGeometry>
        </mxCell>
        <mxCell id="W0lRrHo5N9oozSXiTQE4-1" value="Browser (Any)" style="verticalAlign=top;align=left;spacingTop=8;spacingLeft=2;spacingRight=12;shape=cube;size=10;direction=south;fontStyle=4;html=1;whiteSpace=wrap;" parent="1" vertex="1">
          <mxGeometry x="478.5" y="420" width="123" height="82" as="geometry" />
        </mxCell>
        <mxCell id="W0lRrHo5N9oozSXiTQE4-2" value="(OS: Any)" style="text;align=center;fontStyle=0;verticalAlign=middle;spacingLeft=3;spacingRight=3;strokeColor=none;rotatable=0;points=[[0,0.5],[1,0.5]];portConstraint=eastwest;" parent="1" vertex="1">
          <mxGeometry x="576" y="274" width="64" height="26" as="geometry" />
        </mxCell>
        <mxCell id="W0lRrHo5N9oozSXiTQE4-3" value="(OS: Any)" style="text;align=center;fontStyle=0;verticalAlign=middle;spacingLeft=3;spacingRight=3;strokeColor=none;rotatable=0;points=[[0,0.5],[1,0.5]];portConstraint=eastwest;" parent="1" vertex="1">
          <mxGeometry x="887" y="274" width="64" height="26" as="geometry" />
        </mxCell>
        <mxCell id="W0lRrHo5N9oozSXiTQE4-4" value="(OS: Any)" style="text;align=center;fontStyle=0;verticalAlign=middle;spacingLeft=3;spacingRight=3;strokeColor=none;rotatable=0;points=[[0,0.5],[1,0.5]];portConstraint=eastwest;" parent="1" vertex="1">
          <mxGeometry x="275" y="274" width="64" height="26" as="geometry" />
        </mxCell>
        <mxCell id="dSqrFrBYC_2CAn7mRIEX-1" value="(OS: Any)" style="text;align=center;fontStyle=0;verticalAlign=middle;spacingLeft=3;spacingRight=3;strokeColor=none;rotatable=0;points=[[0,0.5],[1,0.5]];portConstraint=eastwest;" vertex="1" parent="1">
          <mxGeometry x="576" y="504" width="64" height="26" as="geometry" />
        </mxCell>
        <mxCell id="dSqrFrBYC_2CAn7mRIEX-5" value="" style="endArrow=classic;dashed=1;endFill=1;endSize=12;html=1;rounded=0;entryX=0.196;entryY=1.009;entryDx=0;entryDy=0;entryPerimeter=0;" edge="1" parent="1" target="NCQksfRdaHrPETZf62UO-16">
          <mxGeometry width="160" relative="1" as="geometry">
            <mxPoint x="862" y="330" as="sourcePoint" />
            <mxPoint x="840" y="270" as="targetPoint" />
          </mxGeometry>
        </mxCell>
        <mxCell id="dSqrFrBYC_2CAn7mRIEX-7" value="" style="rounded=0;orthogonalLoop=1;jettySize=auto;html=1;endArrow=none;endFill=0;sketch=0;sourcePerimeterSpacing=0;targetPerimeterSpacing=0;exitX=0.225;exitY=0;exitDx=0;exitDy=0;exitPerimeter=0;edgeStyle=orthogonalEdgeStyle;" edge="1" parent="1" source="W0lRrHo5N9oozSXiTQE4-1">
          <mxGeometry relative="1" as="geometry">
            <mxPoint x="602" y="438" as="sourcePoint" />
            <mxPoint x="862" y="368" as="targetPoint" />
          </mxGeometry>
        </mxCell>
        <mxCell id="dSqrFrBYC_2CAn7mRIEX-8" value="" style="rounded=0;orthogonalLoop=1;jettySize=auto;html=1;endArrow=none;endFill=0;sketch=0;sourcePerimeterSpacing=0;targetPerimeterSpacing=0;" edge="1" target="dSqrFrBYC_2CAn7mRIEX-10" parent="1">
          <mxGeometry relative="1" as="geometry">
            <mxPoint x="862" y="369" as="sourcePoint" />
          </mxGeometry>
        </mxCell>
        <mxCell id="dSqrFrBYC_2CAn7mRIEX-9" value="" style="rounded=0;orthogonalLoop=1;jettySize=auto;html=1;endArrow=halfCircle;endFill=0;entryX=0.5;entryY=0.5;endSize=6;strokeWidth=1;sketch=0;entryDx=0;entryDy=0;" edge="1" target="dSqrFrBYC_2CAn7mRIEX-10" parent="1">
          <mxGeometry relative="1" as="geometry">
            <mxPoint x="862" y="330" as="sourcePoint" />
          </mxGeometry>
        </mxCell>
        <mxCell id="dSqrFrBYC_2CAn7mRIEX-10" value="" style="ellipse;whiteSpace=wrap;html=1;align=center;aspect=fixed;resizable=0;points=[];outlineConnect=0;sketch=0;flipV=1;" vertex="1" parent="1">
          <mxGeometry x="857" y="342" width="10" height="10" as="geometry" />
        </mxCell>
        <mxCell id="dSqrFrBYC_2CAn7mRIEX-11" value="HTTP" style="text;html=1;strokeColor=none;fillColor=none;align=center;verticalAlign=middle;whiteSpace=wrap;rounded=0;" vertex="1" parent="1">
          <mxGeometry x="746" y="419" width="41" height="20" as="geometry" />
        </mxCell>
        <mxCell id="dSqrFrBYC_2CAn7mRIEX-12" value="TCP" style="text;html=1;strokeColor=none;fillColor=none;align=center;verticalAlign=middle;whiteSpace=wrap;rounded=0;" vertex="1" parent="1">
          <mxGeometry x="584" y="330" width="42" height="24" as="geometry" />
        </mxCell>
        <mxCell id="dSqrFrBYC_2CAn7mRIEX-13" value="" style="rounded=0;orthogonalLoop=1;jettySize=auto;html=1;endArrow=halfCircle;endFill=0;entryX=0.5;entryY=0.5;endSize=6;strokeWidth=1;sketch=0;entryDx=0;entryDy=0;" edge="1" parent="1" target="dSqrFrBYC_2CAn7mRIEX-14">
          <mxGeometry relative="1" as="geometry">
            <mxPoint x="540" y="330" as="sourcePoint" />
          </mxGeometry>
        </mxCell>
        <mxCell id="dSqrFrBYC_2CAn7mRIEX-14" value="" style="ellipse;whiteSpace=wrap;html=1;align=center;aspect=fixed;resizable=0;points=[];outlineConnect=0;sketch=0;flipV=1;" vertex="1" parent="1">
          <mxGeometry x="535" y="342" width="10" height="10" as="geometry" />
        </mxCell>
        <mxCell id="dSqrFrBYC_2CAn7mRIEX-15" value="" style="endArrow=none;html=1;rounded=0;exitX=-0.002;exitY=0.5;exitDx=0;exitDy=0;exitPerimeter=0;" edge="1" parent="1" source="W0lRrHo5N9oozSXiTQE4-1" target="dSqrFrBYC_2CAn7mRIEX-14">
          <mxGeometry width="50" height="50" relative="1" as="geometry">
            <mxPoint x="540" y="417" as="sourcePoint" />
            <mxPoint x="539.9" y="361" as="targetPoint" />
          </mxGeometry>
        </mxCell>
        <mxCell id="dSqrFrBYC_2CAn7mRIEX-16" value="" style="endArrow=classic;dashed=1;endFill=1;endSize=12;html=1;rounded=0;exitX=0;exitY=0;exitDx=260;exitDy=480;exitPerimeter=0;entryX=0.534;entryY=0.999;entryDx=0;entryDy=0;entryPerimeter=0;" edge="1" parent="1" source="NCQksfRdaHrPETZf62UO-32" target="NCQksfRdaHrPETZf62UO-6">
          <mxGeometry width="160" relative="1" as="geometry">
            <mxPoint x="539.6600000000001" y="322" as="sourcePoint" />
            <mxPoint x="540" y="273" as="targetPoint" />
          </mxGeometry>
        </mxCell>
        <mxCell id="dSqrFrBYC_2CAn7mRIEX-17" value="HTTP" style="text;html=1;strokeColor=none;fillColor=none;align=center;verticalAlign=middle;whiteSpace=wrap;rounded=0;" vertex="1" parent="1">
          <mxGeometry x="489" y="347" width="41" height="20" as="geometry" />
        </mxCell>
        <mxCell id="dSqrFrBYC_2CAn7mRIEX-18" value="TCP" style="text;html=1;strokeColor=none;fillColor=none;align=center;verticalAlign=middle;whiteSpace=wrap;rounded=0;" vertex="1" parent="1">
          <mxGeometry x="672" y="167" width="42" height="24" as="geometry" />
        </mxCell>
        <mxCell id="dSqrFrBYC_2CAn7mRIEX-19" value="" style="rounded=0;orthogonalLoop=1;jettySize=auto;html=1;endArrow=halfCircle;endFill=0;entryX=0.5;entryY=0.5;endSize=6;strokeWidth=1;sketch=0;entryDx=0;entryDy=0;exitX=0.651;exitY=-0.001;exitDx=0;exitDy=0;exitPerimeter=0;" edge="1" parent="1" target="dSqrFrBYC_2CAn7mRIEX-20" source="NCQksfRdaHrPETZf62UO-5">
          <mxGeometry relative="1" as="geometry">
            <mxPoint x="681" y="227" as="sourcePoint" />
          </mxGeometry>
        </mxCell>
        <mxCell id="dSqrFrBYC_2CAn7mRIEX-20" value="" style="ellipse;whiteSpace=wrap;html=1;align=center;aspect=fixed;resizable=0;points=[];outlineConnect=0;sketch=0;flipV=1;" vertex="1" parent="1">
          <mxGeometry x="676" y="239" width="10" height="10" as="geometry" />
        </mxCell>
        <mxCell id="dSqrFrBYC_2CAn7mRIEX-21" value="" style="endArrow=none;html=1;rounded=0;entryX=0.076;entryY=0.631;entryDx=0;entryDy=0;entryPerimeter=0;" edge="1" parent="1" source="dSqrFrBYC_2CAn7mRIEX-20" target="NCQksfRdaHrPETZf62UO-8">
          <mxGeometry width="50" height="50" relative="1" as="geometry">
            <mxPoint x="690" y="244" as="sourcePoint" />
            <mxPoint x="780" y="244" as="targetPoint" />
          </mxGeometry>
        </mxCell>
        <mxCell id="dSqrFrBYC_2CAn7mRIEX-22" value="" style="endArrow=classic;dashed=1;endFill=1;endSize=12;html=1;rounded=0;exitX=0.651;exitY=-0.002;exitDx=0;exitDy=0;exitPerimeter=0;entryX=1;entryY=0.626;entryDx=0;entryDy=0;entryPerimeter=0;" edge="1" parent="1" source="NCQksfRdaHrPETZf62UO-5" target="NCQksfRdaHrPETZf62UO-6">
          <mxGeometry width="160" relative="1" as="geometry">
            <mxPoint x="623" y="265" as="sourcePoint" />
            <mxPoint x="622" y="205" as="targetPoint" />
          </mxGeometry>
        </mxCell>
        <mxCell id="dSqrFrBYC_2CAn7mRIEX-23" value="HTTP" style="text;html=1;strokeColor=none;fillColor=none;align=center;verticalAlign=middle;whiteSpace=wrap;rounded=0;" vertex="1" parent="1">
          <mxGeometry x="691" y="244" width="41" height="20" as="geometry" />
        </mxCell>
        <mxCell id="dSqrFrBYC_2CAn7mRIEX-24" value="" style="rounded=0;orthogonalLoop=1;jettySize=auto;html=1;endArrow=halfCircle;endFill=0;entryX=0.5;entryY=0.5;endSize=6;strokeWidth=1;sketch=0;entryDx=0;entryDy=0;exitX=0.712;exitY=-0.001;exitDx=0;exitDy=0;exitPerimeter=0;" edge="1" parent="1" target="dSqrFrBYC_2CAn7mRIEX-25" source="NCQksfRdaHrPETZf62UO-1">
          <mxGeometry relative="1" as="geometry">
            <mxPoint x="354" y="254" as="sourcePoint" />
          </mxGeometry>
        </mxCell>
        <mxCell id="dSqrFrBYC_2CAn7mRIEX-25" value="" style="ellipse;whiteSpace=wrap;html=1;align=center;aspect=fixed;resizable=0;points=[];outlineConnect=0;sketch=0;flipV=1;" vertex="1" parent="1">
          <mxGeometry x="368.78" y="249" width="10" height="10" as="geometry" />
        </mxCell>
        <mxCell id="dSqrFrBYC_2CAn7mRIEX-26" value="" style="endArrow=none;html=1;rounded=0;exitX=0.075;exitY=0.769;exitDx=0;exitDy=0;exitPerimeter=0;" edge="1" parent="1" source="NCQksfRdaHrPETZf62UO-6" target="dSqrFrBYC_2CAn7mRIEX-25">
          <mxGeometry width="50" height="50" relative="1" as="geometry">
            <mxPoint x="463" y="253.5" as="sourcePoint" />
            <mxPoint x="383" y="254.5" as="targetPoint" />
          </mxGeometry>
        </mxCell>
        <mxCell id="dSqrFrBYC_2CAn7mRIEX-27" value="" style="endArrow=classic;dashed=1;endFill=1;endSize=12;html=1;rounded=0;exitX=0.713;exitY=0;exitDx=0;exitDy=0;exitPerimeter=0;entryX=1.002;entryY=0.769;entryDx=0;entryDy=0;entryPerimeter=0;" edge="1" parent="1" source="NCQksfRdaHrPETZf62UO-1" target="NCQksfRdaHrPETZf62UO-4">
          <mxGeometry width="160" relative="1" as="geometry">
            <mxPoint x="345" y="253.81" as="sourcePoint" />
            <mxPoint x="295" y="253.81" as="targetPoint" />
          </mxGeometry>
        </mxCell>
        <mxCell id="dSqrFrBYC_2CAn7mRIEX-28" value="TCP" style="text;html=1;strokeColor=none;fillColor=none;align=center;verticalAlign=middle;whiteSpace=wrap;rounded=0;" vertex="1" parent="1">
          <mxGeometry x="368.78" y="167" width="42" height="24" as="geometry" />
        </mxCell>
      </root>
    </mxGraphModel>
  </diagram>
</mxfile>
